<svg version="1.1" id="Слой_1" xmlns="http://www.w3.org/2000/svg" xmlns:xlink="http://www.w3.org/1999/xlink" x="0px" y="0px"
	 viewBox="0 0 100 100" style="enable-background:new 0 0 100 100;" xml:space="preserve">
<style type="text/css">
	@keyframes change_fill {
		0% { fill: #ccffff; }
		50% { fill: #003333; }
		100% { fill: #ccffff; }
	}
	.st0{fill:#a4a5a6;}
	.a{
		animation: change_fill 7s infinite;
	}
	.b{
		animation: change_fill 6s infinite;
	}
	.c{
		animation: change_fill 8s infinite;
	}
	.d{
		animation: change_fill 10s infinite;
	}
	.e{
		animation: change_fill 8s infinite;
	}
	.f{
		animation: change_fill 11s infinite;
	}
	.g{
		animation: change_fill 7s infinite;
	}
	.h{
		animation: change_fill 10s infinite;
	}
	.i{
		animation: change_fill 12s infinite;
	}
	.j{
		animation: change_fill 7s infinite;
	}
	.k{
		animation: change_fill 9s infinite;
	}
	.l{
		animation: change_fill 10s infinite;
	}
	.m{
		animation: change_fill 10s infinite;
	}
	.n{
		animation: change_fill 8s infinite;
	}
</style>
<g>
	<g>
		<polygon class="st0 a" points="52.5,6.5 51.2,5.6 50.2,7 50,5.3 48.5,5.4 49.6,4.2 48.5,3 50.1,3.1 50.3,1.5 51.2,2.9 52.6,2 
			52.1,3.6 53.6,4.3 52.1,4.9 		"/>
		<polygon class="st0 b" points="31.6,16.6 30.2,15.7 29.3,17.1 29.1,15.4 27.5,15.5 28.6,14.3 27.5,13 29.1,13.2 29.4,11.5 
			30.3,12.9 31.6,12.1 31.2,13.7 32.6,14.4 31.1,15 		"/>
		<polygon class="st0 c" points="73.8,16.6 72.5,15.7 71.6,17.1 71.3,15.4 69.8,15.5 70.9,14.3 69.8,13 71.4,13.2 71.6,11.5 
			72.5,12.9 73.9,12.1 73.4,13.7 74.9,14.4 73.4,15 		"/>
		<polygon class="st0 d" points="26.5,37.6 25.2,36.8 24.2,38.1 24,36.5 22.5,36.6 23.5,35.4 22.5,34.1 24.1,34.3 24.3,32.6 25.2,34 
			26.6,33.2 26.1,34.8 27.6,35.4 26.1,36 		"/>
		<polygon class="st0 e" points="34.1,55.5 32.8,54.7 31.9,56 31.6,54.4 30.1,54.5 31.2,53.2 30.1,52 31.7,52.1 31.9,50.5 32.8,51.9 
			34.2,51.1 33.7,52.7 35.2,53.3 33.7,53.9 		"/>
		<polygon class="st0 f" points="52.5,60.7 51.2,59.8 50.2,61.2 50,59.5 48.5,59.6 49.6,58.4 48.5,57.1 50.1,57.3 50.3,55.6 51.2,57 
			52.6,56.2 52.1,57.8 53.6,58.5 52.1,59.1 		"/>
		<polygon class="st0 g" points="71.8,57.3 70,56.2 68.8,57.9 68.6,55.9 66.5,56 68,54.5 66.6,53 68.7,53.2 69,51.1 70.2,52.8 
			72,51.8 71.3,53.8 73.2,54.5 71.3,55.3 		"/>
		<polygon class="st0 h" points="78.9,37.6 77.5,36.8 76.6,38.1 76.4,36.5 74.8,36.6 75.9,35.4 74.9,34.1 76.5,34.3 76.7,32.6 
			77.6,34 79,33.2 78.5,34.8 80,35.4 78.5,36 		"/>
		<path class="st0" d="M46.5,59.6l-11.5-3.4c-0.1,0-0.1-0.1-0.1-0.1l0-0.1c0-0.1,0.1-0.1,0.1-0.1l11.5,3.4c0.1,0,0.1,0.1,0.1,0.1
			l0,0.1C46.7,59.6,46.6,59.6,46.5,59.6z"/>
		<path class="st0" d="M24.2,31.3l2.9-13.4c0,0,0.1-0.1,0.1-0.1l0.1,0c0,0,0.1,0.1,0.1,0.1l-2.9,13.4c0,0-0.1,0.1-0.1,0.1l-0.1,0
			C24.2,31.4,24.2,31.3,24.2,31.3z"/>
		<path class="st0" d="M72.7,51l4.4-14.1c0,0,0-0.1-0.1-0.1l-0.1,0c0,0-0.1,0-0.1,0.1l-4.4,14.1c0,0,0,0.1,0.1,0.1l0.1,0
			C72.7,51.1,72.7,51.1,72.7,51z"/>
		<path class="st0" d="M69,12.3L54.2,5.5c-0.1,0-0.1-0.1-0.1-0.2l0-0.1c0-0.1,0.1-0.1,0.1-0.1L69.2,12c0.1,0,0.1,0.1,0.1,0.2l0,0.1
			C69.2,12.3,69.1,12.3,69,12.3z"/>
		<path class="st0" d="M29.8,50.4L25,38.8c0-0.1,0-0.1,0.1-0.2l0.1,0c0.1,0,0.1,0,0.1,0.1l4.8,11.6c0,0.1,0,0.1-0.1,0.2l-0.1,0
			C29.9,50.5,29.8,50.5,29.8,50.4z"/>
		<path class="st0" d="M32.7,11.8l13.7-6.4c0.1,0,0.1,0,0.1,0.1l0,0.1c0,0.1,0,0.1-0.1,0.2l-13.7,6.4c-0.1,0-0.1,0-0.1-0.1l0-0.1
			C32.6,11.9,32.6,11.8,32.7,11.8z"/>
		<path class="st0" d="M66.2,55l-11.3,4c-0.1,0-0.1,0-0.1-0.1l0-0.1c0-0.1,0-0.1,0.1-0.1l11.3-4c0.1,0,0.1,0,0.1,0.1l0,0.1
			C66.3,54.9,66.3,55,66.2,55z"/>
		<path class="st0" d="M76,31.1l-2.7-12.4c0-0.1,0-0.1,0.1-0.1l0.1,0c0.1,0,0.1,0,0.1,0.1L76.4,31c0,0.1,0,0.1-0.1,0.1l-0.1,0
			C76.1,31.2,76.1,31.1,76,31.1z"/>
	</g>
	<g>
		<polygon class="st0 j" points="32.3,74.5 30.5,73.3 29.3,75.2 29,72.9 26.9,73.1 28.4,71.4 27,69.7 29.1,69.9 29.4,67.7 30.6,69.6 
			32.4,68.5 31.8,70.7 33.7,71.5 31.7,72.3 		"/>
		<polygon class="st0 k" points="12.9,81.2 11.6,80.3 10.7,81.7 10.4,80 8.9,80.1 10,78.9 8.9,77.7 10.5,77.8 10.7,76.2 11.6,77.6 
			13,76.7 12.5,78.3 14,79 12.5,79.6 		"/>
		<polygon class="st0 l" points="5.4,96.6 4.1,95.7 3.2,97.1 3,95.4 1.4,95.5 2.5,94.3 1.4,93.1 3,93.2 3.3,91.5 4.1,93 5.5,92.1 
			5,93.7 6.5,94.4 5,95 		"/>
		<polygon class="st0 m" points="51.7,93.6 49.9,92.4 48.8,94.3 48.5,91.9 46.5,92 47.8,90.3 46.5,88.5 48.5,88.8 48.8,86.5 
			49.9,88.5 51.6,87.4 51,89.6 52.9,90.6 51.1,91.4 		"/>
		<polygon class="st0 n" points="70.2,74.8 68.8,73.9 67.9,75.3 67.7,73.6 66.1,73.7 67.2,72.5 66.1,71.2 67.7,71.4 68,69.7 
			68.8,71.1 70.2,70.3 69.7,71.9 71.2,72.6 69.7,73.2 		"/>
		<polygon class="st0 a" points="86.8,81.2 85.4,80.3 84.5,81.7 84.3,80 82.7,80.1 83.8,78.9 82.7,77.7 84.3,77.8 84.6,76.2 
			85.5,77.6 86.8,76.7 86.4,78.3 87.8,79 86.3,79.6 		"/>
		<polygon class="st0 b" points="94.2,97.6 92.8,96.8 91.9,98.1 91.7,96.5 90.1,96.6 91.2,95.4 90.2,94.1 91.7,94.2 92,92.6 92.9,94 
			94.3,93.2 93.8,94.8 95.2,95.4 93.7,96 		"/>
		<path class="st0" d="M45.7,88.5L32.2,75.3c-0.1-0.1-0.1-0.2,0-0.2l0.1-0.1c0.1-0.1,0.2-0.1,0.2,0L46,88.1c0.1,0.1,0.1,0.2,0,0.2
			l-0.1,0.1C45.8,88.6,45.7,88.6,45.7,88.5z"/>
		<path class="st0" d="M52.5,88.4l13-13.8c0.1-0.1,0.2-0.1,0.2,0l0.1,0.1c0.1,0.1,0.1,0.2,0,0.3l-13,13.8c-0.1,0.1-0.2,0.1-0.2,0
			l-0.1-0.1C52.5,88.6,52.5,88.5,52.5,88.4z"/>
		<path class="st0" d="M82.4,77.9l-11-5c-0.1,0-0.1-0.1-0.1-0.2l0-0.1c0-0.1,0.1-0.1,0.1-0.1l11,5c0.1,0,0.1,0.1,0.1,0.2l0,0.1
			C82.5,77.9,82.4,78,82.4,77.9z"/>
		<path class="st0" d="M26.1,73.2L15,77.7c-0.1,0-0.1,0-0.1-0.1l0-0.1c0-0.1,0-0.1,0.1-0.2L26,72.8c0.1,0,0.1,0,0.1,0.1l0,0.1
			C26.2,73.1,26.2,73.1,26.1,73.2z"/>
		<path class="st0" d="M86.5,81.7l4.8,11.6c0,0.1,0,0.1-0.1,0.2l-0.1,0c-0.1,0-0.1,0-0.1-0.1l-4.8-11.6c0-0.1,0-0.1,0.1-0.2l0.1,0
			C86.4,81.6,86.5,81.6,86.5,81.7z"/>
		<path class="st0" d="M9.2,81.5l-0.1-0.1c-0.1,0-0.2,0-0.2,0.1l-3.9,9.7c0,0.1,0,0.2,0.1,0.2l0.1,0.1c0.1,0,0.2,0,0.2-0.1l3.9-9.7
			C9.3,81.6,9.3,81.5,9.2,81.5z"/>
	</g>
	<polygon class="st0 c" points="9.9,14.4 8.9,12.7 7.4,13.9 7.9,11.8 6.2,11.2 7.9,10.3 7.3,8.3 8.9,9.2 9.8,7.4 10.1,9.5 11.9,9.2 
		10.7,10.8 11.9,12.3 10.2,12.3 	"/>
	<polygon class="st0 d" points="96.2,19.4 95.1,17.7 93.3,18.7 93.9,16.8 92.1,16 93.9,15.3 93.4,13.3 95.1,14.4 96.2,12.8 96.5,14.8 
		98.5,14.7 97.2,16.1 98.5,17.7 96.5,17.4 	"/>
	<polygon class="st0 e" points="67.7,43 66.3,41.9 65.2,43.3 65.1,41.5 63.4,41.5 64.7,40.3 63.6,38.8 65.3,39.1 65.7,37.4 66.5,38.9 
		68.1,38.2 67.4,39.9 69,40.7 67.3,41.2 	"/>
	<polygon class="st0 f" points="72.8,87.5 71.7,86.2 70.3,87.1 70.7,85.5 69.1,85 70.6,84.3 70,82.8 71.5,83.5 72.3,82.2 72.7,83.8 
		74.4,83.6 73.3,84.8 74.6,86 72.9,85.9 	"/>
	<polygon class="st0 g" points="8.3,56.1 7,55.2 5.9,56.4 5.9,54.8 4.2,54.8 5.5,53.8 4.5,52.5 6.1,52.8 6.6,51.3 7.3,52.6 8.8,52 
		8.2,53.4 9.6,54.1 8,54.6 	"/>
	<polygon class="st0 h" points="86.9,55.8 85.8,55.1 85,56.2 84.9,54.8 83.6,54.9 84.5,53.9 83.7,52.9 84.9,53 85.2,51.7 85.9,52.8 
		87,52.2 86.6,53.5 87.8,54 86.6,54.5 	"/>
</g>
</svg>
