<?xml version="1.0" encoding="utf-8"?>
<!-- Generator: Adobe Illustrator 22.1.0, SVG Export Plug-In . SVG Version: 6.00 Build 0)  -->
<svg version="1.1" id="Слой_1" xmlns="http://www.w3.org/2000/svg" xmlns:xlink="http://www.w3.org/1999/xlink" x="0px" y="0px"
	 viewBox="0 0 60 40" style="enable-background:new 0 0 60 40;" xml:space="preserve">
<style type="text/css">
	@keyframes change_fill {
		0% { fill: #1c3742; }
		50% { fill: #c9e8f4; }
		100% { fill: #1c3742; }
	}
	.st0 {
		animation: change_fill 10s infinite;
	}

</style>
<polygon class="st0" points="13.1,17.6 13.6,18.7 14.6,18 14.5,19.2 15.7,19.1 15,20.1 16.1,20.6 15,21.1 15.7,22.1 14.5,22 
	14.6,23.2 13.6,22.5 13.1,23.6 12.6,22.5 11.6,23.2 11.7,22 10.5,22.1 11.1,21.1 10.1,20.6 11.1,20.1 10.5,19.1 11.7,19.2 11.6,18 
	12.6,18.7 "/>
<polygon class="st0" points="19.8,19.2 20,19.7 20.5,19.4 20.5,20 21.1,19.9 20.7,20.4 21.3,20.7 20.7,20.9 21.1,21.4 20.5,21.4 
	20.5,22 20,21.7 19.8,22.2 19.5,21.7 19,22 19.1,21.4 18.5,21.4 18.8,20.9 18.3,20.7 18.8,20.4 18.5,19.9 19.1,20 19,19.4 
	19.5,19.7 "/>
<polygon class="st0" points="6.6,27.2 6.9,27.8 7.4,27.4 7.4,28.1 8,28 7.6,28.6 8.2,28.9 7.6,29.1 8,29.7 7.4,29.6 7.4,30.3 
	6.9,29.9 6.6,30.5 6.3,29.9 5.7,30.3 5.8,29.6 5.1,29.7 5.5,29.1 4.9,28.9 5.5,28.6 5.1,28 5.8,28.1 5.7,27.4 6.3,27.8 "/>
<polygon class="st0" points="27.7,27.8 28.2,28.9 29.2,28.2 29.1,29.4 30.3,29.3 29.6,30.3 30.7,30.8 29.6,31.3 30.3,32.3 
	29.1,32.2 29.2,33.4 28.2,32.7 27.7,33.8 27.2,32.7 26.2,33.4 26.3,32.2 25.1,32.3 25.8,31.3 24.7,30.8 25.8,30.3 25.1,29.3 
	26.3,29.4 26.2,28.2 27.2,28.9 "/>
<polygon class="st0" points="30,13.2 30.5,14.3 31.5,13.6 31.4,14.8 32.6,14.7 31.9,15.7 33,16.2 31.9,16.7 32.6,17.7 31.4,17.6 
	31.5,18.8 30.5,18.1 30,19.2 29.5,18.1 28.5,18.8 28.6,17.6 27.4,17.7 28.1,16.7 27,16.2 28.1,15.7 27.4,14.7 28.6,14.8 28.5,13.6 
	29.5,14.3 "/>
<polygon class="st0" points="20,6 20.6,7.1 21.5,6.4 21.5,7.6 22.6,7.5 22,8.5 23,9 22,9.5 22.6,10.5 21.5,10.4 21.5,11.6 
	20.6,10.9 20,12 19.5,10.9 18.5,11.6 18.6,10.4 17.4,10.5 18.1,9.5 17,9 18.1,8.5 17.4,7.5 18.6,7.6 18.5,6.4 19.5,7.1 "/>
<polygon class="st0" points="46,5.5 46.3,6.1 46.8,5.7 46.7,6.3 47.3,6.3 47,6.8 47.5,7 47,7.3 47.3,7.8 46.7,7.7 46.8,8.3 46.3,8 
	46,8.5 45.8,8 45.3,8.3 45.3,7.7 44.7,7.8 45,7.3 44.5,7 45,6.8 44.7,6.3 45.3,6.3 45.3,5.7 45.8,6.1 "/>
<polygon class="st0" points="53,17.6 53.7,19 54.9,18.1 54.8,19.7 56.3,19.5 55.5,20.8 56.9,21.5 55.5,22.1 56.3,23.4 54.8,23.3 
	54.9,24.8 53.7,24 53,25.4 52.3,24 51.1,24.8 51.2,23.3 49.6,23.4 50.5,22.1 49.1,21.5 50.5,20.8 49.6,19.5 51.2,19.7 51.1,18.1 
	52.3,19 "/>
<polygon class="st0" points="50.3,10.5 50.7,11.2 51.4,10.8 51.3,11.6 52.2,11.6 51.7,12.3 52.4,12.6 51.7,13 52.2,13.7 51.3,13.7 
	51.4,14.5 50.7,14 50.3,14.8 49.9,14 49.2,14.5 49.3,13.7 48.4,13.7 48.9,13 48.1,12.6 48.9,12.3 48.4,11.6 49.3,11.6 49.2,10.8 
	49.9,11.2 "/>
<polygon class="st0" points="37.4,0.6 38,1.9 39.2,1.1 39.1,2.5 40.6,2.4 39.8,3.6 41.1,4.2 39.8,4.8 40.6,6 39.1,5.9 39.2,7.4 
	38,6.6 37.4,7.9 36.8,6.6 35.6,7.4 35.7,5.9 34.3,6 35.1,4.8 33.8,4.2 35.1,3.6 34.3,2.4 35.7,2.5 35.6,1.1 36.8,1.9 "/>
</svg>
