<svg version="1.1" id="Слой_1" xmlns="http://www.w3.org/2000/svg" xmlns:xlink="http://www.w3.org/1999/xlink" x="0px" y="0px"
	 viewBox="0 0 100 100" style="enable-background:new 0 0 100 100;" xml:space="preserve">
<style type="text/css">
	@keyframes change_fill {
		0% { fill: #ccffff; }
		50% { fill: #003333; }
		100% { fill: #ccffff; }
	}
	.st0{fill:#a4a5a6;}
	.a{
		animation: change_fill 7s infinite;
	}
	.b{
		animation: change_fill 6s infinite;
	}
	.c{
		animation: change_fill 8s infinite;
	}
	.d{
		animation: change_fill 10s infinite;
	}
	.e{
		animation: change_fill 8s infinite;
	}
	.f{
		animation: change_fill 11s infinite;
	}
	.g{
		animation: change_fill 7s infinite;
	}
	.h{
		animation: change_fill 10s infinite;
	}
	.i{
		animation: change_fill 12s infinite;
	}
	.j{
		animation: change_fill 7s infinite;
	}
	.k{
		animation: change_fill 9s infinite;
	}
	.l{
		animation: change_fill 10s infinite;
	}
	.m{
		animation: change_fill 10s infinite;
	}
	.n{
		animation: change_fill 8s infinite;
	}
</style>
	<g>
		<polygon class="st0 a" points="33,10.5 32.4,8.1 30,8.5 31.5,6.5 29.7,4.8 32.2,4.8 32.4,2.3 33.9,4.2 36,2.7 35.4,5.2 37.8,5.9 35.6,7 36.5,9.3 
			34.2,8.3 	"/>
		<polygon class="st0 b" points="35.1,50.2 34.8,48.6 33.3,49 34.3,47.6 33.2,46.6 34.8,46.4 35.1,44.7 36,46 37.3,44.9 36.9,46.6 38.4,46.9 
			36.9,47.8 37.4,49.3 36,48.7 	"/>
		<polygon class="st0 c" points="45.1,76.3 44.7,74.7 43.1,75 44.1,73.7 42.9,72.6 44.5,72.6 44.6,71 45.7,72.2 47,71.3 46.7,72.9 48.2,73.3 
			46.8,74.1 47.4,75.5 45.9,74.9 	"/>
		<polygon class="st0 d" points="74.1,100.1 73.6,97.8 71.3,98.2 72.7,96.4 71,94.9 73.3,94.8 73.5,92.6 74.9,94.3 76.8,93 76.3,95.3 78.5,95.9 
			76.4,96.9 77.3,99 75.2,98.1 	"/>
		<polygon class="st0 e" points="87.8,86.9 87.5,85.6 86.2,85.8 87,84.8 86,83.9 87.3,83.9 87.4,82.6 88.2,83.6 89.3,82.9 89,84.1 90.2,84.5 
			89.1,85.1 89.6,86.3 88.4,85.7 	"/>
		<polygon class="st0 f" points="77.6,68.8 77.2,67.4 75.8,67.6 76.7,66.5 75.6,65.5 77.1,65.5 77.1,64.1 78,65.2 79.2,64.4 78.9,65.8 80.3,66.2 
			79,66.8 79.5,68.1 78.3,67.5 	"/>
		<polygon class="st0 g" points="63.1,72.4 62.7,70.9 61.1,71.1 62,69.8 60.8,68.7 62.4,68.8 62.4,67.2 63.5,68.5 64.8,67.6 64.6,69.1 66.2,69.6 
			64.7,70.3 65.4,71.8 63.9,71.1 	"/>
		<polygon class="st0 h" points="54.7,54.3 54.2,52.3 52.1,52.6 53.4,50.9 51.8,49.5 53.9,49.5 54.1,47.4 55.4,49 57.2,47.8 56.7,49.9 58.7,50.5 
			56.8,51.4 57.6,53.4 55.7,52.5 	"/>
		<polygon class="st0 i" points="50.4,33.2 49.9,31.2 47.8,31.5 49.1,29.8 47.6,28.4 49.7,28.4 49.8,26.3 51.2,27.9 52.9,26.7 52.5,28.8 54.5,29.4 
			52.6,30.3 53.4,32.3 51.5,31.4 	"/>
		<polygon class="st0 j" points="20.3,71 19.7,69.2 17.9,69.4 19,68.1 17.6,66.8 19.4,66.9 19.4,65.2 20.7,66.6 22.1,65.6 21.8,67.3 23.6,67.9 
			22,68.6 22.8,70.3 21.1,69.5 	"/>
		<polygon class="st0 k" points="44,25 43.6,23.2 41.8,23.6 43,22 41.8,20.8 43.5,20.7 43.8,18.8 44.8,20.2 46.4,19.1 45.9,20.9 47.6,21.4 
			45.9,22.3 46.5,24 44.9,23.3 	"/>
		<polygon class="st0 l" points="73.8,45.2 73.5,43.8 72,44 72.9,42.8 71.8,41.8 73.4,41.7 73.5,40.2 74.4,41.4 75.7,40.4 75.3,42 76.8,42.4 
			75.4,43.1 75.9,44.5 74.6,43.9 	"/>
		<polygon class="st0 m" points="74.9,4.6 74.7,3.3 73.4,3.6 74.3,2.4 73.3,1.5 74.7,1.4 74.9,-0.1 75.7,1 76.8,0.1 76.5,1.5 77.7,1.8 76.5,2.6 
			76.9,3.9 75.7,3.3 	"/>
		<polygon class="st0 n" points="51.7,97.2 51.4,95.8 49.9,96 50.8,94.8 49.7,93.9 51.2,93.8 51.3,92.4 52.2,93.5 53.4,92.7 53.1,94.1 54.5,94.5 
			53.2,95.2 53.8,96.5 52.4,95.9 	"/>
		<polygon class="st0 a" points="18.6,21.8 18.2,20.3 16.7,20.5 17.7,19.3 16.5,18.2 18.1,18.2 18.2,16.6 19.2,17.8 20.5,16.9 20.1,18.5 21.6,18.9 
			20.2,19.6 20.8,21.1 19.4,20.4 	"/>
		<polygon class="st0 b" points="64.5,26.9 64.1,25.4 62.7,25.7 63.6,24.5 62.5,23.5 64,23.5 64,22 65,23.2 66.2,22.4 65.9,23.8 67.3,24.2 66,24.9 
			66.6,26.2 65.2,25.6 	"/>
		<polygon class="st0 c" points="58.9,6.5 58.4,5.1 57,5.2 57.8,4.2 56.6,3.1 58.1,3.2 58.1,1.8 59.1,3 60.3,2.3 60.1,3.6 61.6,4.2 60.3,4.7 61,6 
			59.5,5.3 	"/>
		<path class="st0" d="M56.3,4.5L38.9,6c-0.2,0-0.3-0.1-0.3-0.3l0-0.1c0-0.2,0.1-0.3,0.3-0.3l17.4-1.6c0.2,0,0.3,0.1,0.3,0.3l0,0.1
			C56.6,4.3,56.5,4.5,56.3,4.5z"/>
		<path class="st0" d="M44.7,71.6l-0.1,0c-0.1,0-0.3,0-0.3-0.1l-8-19.2c0-0.1,0-0.3,0.1-0.3l0.1,0c0.1,0,0.3,0,0.3,0.1l8,19.2
			C44.8,71.4,44.8,71.6,44.7,71.6z"/>
		<path class="st0" d="M85.8,86.3L77,93.4c-0.1,0.1-0.1,0.3,0,0.4l0.1,0.1c0.1,0.1,0.3,0.1,0.4,0l8.8-7.1c0.1-0.1,0.1-0.3,0-0.4l-0.1-0.1
			C86.1,86.2,85.9,86.2,85.8,86.3z"/>
		<path class="st0" d="M80.7,70.7L80.7,70.7c0.2-0.1,0.3-0.1,0.4,0l7,10.7c0.1,0.1,0,0.2-0.1,0.3l-0.1,0.1c-0.1,0.1-0.2,0-0.3-0.1l-7-10.7
			C80.5,70.9,80.6,70.8,80.7,70.7z"/>
		<path class="st0" d="M60.2,67.5l-0.1,0.1c-0.1,0.1-0.3,0-0.3-0.1l-5.5-11c-0.1-0.1,0-0.3,0.1-0.3l0.1-0.1c0.1-0.1,0.3,0,0.3,0.1l5.5,11
			C60.4,67.3,60.4,67.4,60.2,67.5z"/>
		<path class="st0" d="M50.4,34.1l-0.1,0c-0.2,0-0.3,0.2-0.2,0.3l2.1,12.8c0,0.2,0.2,0.3,0.3,0.2l0.1,0c0.2,0,0.3-0.2,0.2-0.3l-2.1-12.8
			C50.7,34.2,50.6,34.1,50.4,34.1z"/>
		<path class="st0" d="M64,20.7l-0.1,0c-0.1,0-0.3-0.1-0.3-0.2L60.8,8.1c0-0.1,0.1-0.3,0.2-0.3l0.1,0c0.1,0,0.3,0.1,0.3,0.2l2.7,12.5
			C64.2,20.6,64.1,20.7,64,20.7z"/>
		<path class="st0" d="M60.8,25.9L54.4,28c-0.1,0-0.3,0-0.3-0.2l0-0.1c0-0.1,0-0.3,0.2-0.3l6.3-2.2c0.1,0,0.3,0,0.3,0.2l0,0.1
			C61,25.7,60.9,25.9,60.8,25.9z"/>
		<path class="st0" d="M75.6,66.6l-9.2,2c-0.1,0-0.1,0.1-0.1,0.1l0,0.1c0,0.1,0.1,0.1,0.1,0.1l9.2-2c0.1,0,0.1-0.1,0.1-0.1l0-0.1
			C75.7,66.6,75.6,66.6,75.6,66.6z"/>
		<path class="st0" d="M68.6,92.5L68.6,92.5c0.1-0.1,0.1-0.3,0-0.3L49.1,77.9c-0.1-0.1-0.2,0-0.2,0L48.8,78c-0.1,0.1,0,0.2,0,0.2l19.5,14.3
			C68.4,92.6,68.5,92.6,68.6,92.5z"/>
		<path class="st0" d="M34.8,43.5l-0.1,0c-0.1,0-0.2-0.1-0.2-0.2l-2.9-32.5c0-0.1,0.1-0.2,0.2-0.2l0.1,0c0.1,0,0.2,0.1,0.2,0.2L35,43.3
			C35,43.4,34.9,43.5,34.8,43.5z"/>
	</g>
</svg>
