<?xml version="1.0" encoding="utf-8"?>
<!-- Generator: Adobe Illustrator 22.1.0, SVG Export Plug-In . SVG Version: 6.00 Build 0)  -->
<svg version="1.1" id="Слой_1" xmlns="http://www.w3.org/2000/svg" xmlns:xlink="http://www.w3.org/1999/xlink" x="0px" y="0px"
	 viewBox="0 0 40 40" style="enable-background:new 0 0 40 40;" xml:space="preserve">
<style type="text/css">
	@keyframes change_fill {
		0% { fill: #ccffff; }
		50% { fill: #003333; }
		100% { fill: #ccffff; }
	}
	.st0{fill:#a4a5a6;}
	.a{
		animation: change_fill 7s infinite;
	}
	.b{
		animation: change_fill 6s infinite;
	}
	.c{
		animation: change_fill 8s infinite;
	}
	.d{
		animation: change_fill 10s infinite;
	}
	.e{
		animation: change_fill 8s infinite;
	}
	.f{
		animation: change_fill 11s infinite;
	}
	.g{
		animation: change_fill 7s infinite;
	}
	.h{
		animation: change_fill 10s infinite;
	}
</style>
<polygon class="st0 a" points="5.2,3.1 5.9,1.9 5.7,3.3 7,2.9 6,3.8 7.3,4.4 5.9,4.5 6.5,5.8 5.5,4.9 5.2,6.3 4.9,4.9 3.8,5.8 
	4.4,4.5 3.1,4.4 4.3,3.8 3.3,2.9 4.6,3.3 4.4,1.9 "/>
<polygon class="st0 b" points="35.2,3.1 36,1.9 35.8,3.3 37.1,2.9 36.1,3.8 37.4,4.4 36,4.5 36.6,5.8 35.5,4.9 35.2,6.3 35,4.9 
	33.9,5.8 34.5,4.5 33.1,4.4 34.4,3.8 33.4,2.9 34.7,3.3 34.5,1.9 "/>
<polygon class="st0 c" points="35.2,34.2 36,33 35.8,34.4 37.1,34 36.1,35 37.4,35.5 36,35.6 36.6,36.9 35.5,36 35.2,37.4 35,36 
	33.9,36.9 34.5,35.6 33.1,35.5 34.4,35 33.4,34 34.7,34.4 34.5,33 "/>
<polygon class="st0 d" points="5.2,34.2 5.9,33 5.7,34.4 7,34 6,35 7.3,35.5 5.9,35.6 6.5,36.9 5.5,36 5.2,37.4 4.9,36 3.8,36.9 
	4.4,35.6 3.1,35.5 4.3,35 3.3,34 4.6,34.4 4.4,33 "/>
<polygon class="st0 e" points="10.2,28.1 9.9,26.8 10.7,27.9 11.3,26.7 11.3,28.1 12.5,27.6 11.6,28.5 13,29 11.6,29.1 12.4,30.3 
	11.2,29.5 11.1,30.9 10.6,29.6 9.7,30.5 10.1,29.2 8.8,29.2 10,28.6 8.8,27.8 "/>
<polygon class="st0 f" points="29.3,10 29,8.7 29.8,9.8 30.4,8.6 30.4,10 31.6,9.5 30.7,10.4 32,10.9 30.7,11 31.4,12.2 30.3,11.4 
	30.2,12.7 29.7,11.4 28.8,12.3 29.2,11.1 27.9,11.1 29.1,10.5 28,9.7 "/>
<rect x="4.9" y="7.2" class="st0" width="0.5" height="25.2"/>
<rect x="35" y="7.2" class="st0" width="0.5" height="25.2"/>
<rect x="19.8" y="-8.5" transform="matrix(3.929485e-11 -1 1 3.929485e-11 15.9596 24.099)" class="st0" width="0.5" height="25.2"/>
<rect x="20.3" y="22.6" transform="matrix(3.929485e-11 -1 1 3.929485e-11 -14.6899 55.7329)" class="st0" width="0.5" height="25.2"/>
<rect x="20" y="10.8" transform="matrix(-0.7071 -0.7071 0.7071 -0.7071 20.7022 48.4546)" class="st0" width="0.8" height="18.3"/>
<polygon class="st0 g" points="29.7,29.5 28.3,29.8 29.5,28.9 28.3,28.3 29.6,28.3 29.1,27.1 30.1,28 30.6,26.7 30.7,28 31.9,27.2 
	31.1,28.4 32.5,28.6 31.1,29 32,30 30.8,29.5 30.8,30.9 30.2,29.7 29.3,30.8 "/>
<polygon class="st0 h" points="10.6,10.8 9.4,11.1 10.4,10.3 9.3,9.8 10.5,9.8 10.1,8.7 10.9,9.5 11.3,8.4 11.4,9.5 12.5,8.9 
	11.8,9.9 13,10 11.8,10.4 12.6,11.2 11.5,10.8 11.5,12 11,11 10.3,11.9 "/>
<rect x="20.4" y="10.7" transform="matrix(-0.7071 0.7071 -0.7071 -0.7071 49.5253 19.1563)" class="st0" width="0.8" height="18.3"/>
</svg>
