<svg version="1.1" id="Слой_1" xmlns="http://www.w3.org/2000/svg" xmlns:xlink="http://www.w3.org/1999/xlink" x="0px" y="0px"
	 viewBox="0 0 100 100" style="enable-background:new 0 0 100 100;" xml:space="preserve">
<style type="text/css">
	@keyframes change_fill {
		0% { fill: #ccffff; }
		50% { fill: #003333; }
		100% { fill: #ccffff; }
	}
	.st0{fill:#a4a5a6;}
	.a{
		animation: change_fill 7s infinite;
	}
	.b{
		animation: change_fill 6s infinite;
	}
	.c{
		animation: change_fill 8s infinite;
	}
	.d{
		animation: change_fill 10s infinite;
	}
	.e{
		animation: change_fill 8s infinite;
	}
	.f{
		animation: change_fill 11s infinite;
	}
	.g{
		animation: change_fill 7s infinite;
	}
	.h{
		animation: change_fill 10s infinite;
	}
	.i{
		animation: change_fill 12s infinite;
	}
	.j{
		animation: change_fill 7s infinite;
	}
	.k{
		animation: change_fill 9s infinite;
	}
	.l{
		animation: change_fill 10s infinite;
	}
	.m{
		animation: change_fill 10s infinite;
	}
	.n{
		animation: change_fill 8s infinite;
	}
</style>
<g>
	<polygon class="st0 a" points="12.8,29.3 10.9,27.3 8.9,29.1 9.2,26.3 6.6,25.8 8.9,24.4 7.7,21.9 10.2,22.9 11.3,20.4 12.2,23 
		14.8,22.3 13.3,24.6 15.5,26.3 12.8,26.5 	"/>
	<polygon class="st0 b" points="20,13.7 18.7,12.3 17.2,13.5 17.4,11.6 15.6,11.2 17.2,10.3 16.4,8.6 18.1,9.2 18.9,7.5 19.5,9.3 
		21.4,8.9 20.3,10.4 21.8,11.6 20,11.8 	"/>
	<polygon class="st0 c" points="70.7,54.7 69.6,53.4 68.4,54.5 68.6,52.8 67.1,52.4 68.4,51.5 67.7,49.9 69.2,50.5 69.9,48.9 
		70.3,50.6 71.9,50.2 71,51.7 72.2,52.7 70.7,52.9 	"/>
	<polygon class="st0 d" points="101.6,91.2 100.6,90.2 99.6,91.1 99.8,89.7 98.5,89.5 99.6,88.7 99,87.5 100.3,88 100.8,86.7 
		101.3,88 102.5,87.7 101.8,88.9 102.9,89.7 101.5,89.8 	"/>
	<polygon class="st0 e" points="56.9,100.8 55.6,99.5 54.2,100.7 54.4,98.8 52.5,98.4 54.2,97.4 53.3,95.7 55.1,96.4 55.9,94.7 
		56.5,96.5 58.3,96 57.3,97.6 58.8,98.8 56.9,98.9 	"/>
	<polygon class="st0 f" points="95,6.3 93.8,5.1 92.5,6.1 92.7,4.6 91.1,4.2 92.5,3.4 91.8,2 93.3,2.5 94,1.1 94.6,2.6 96.2,2.2 
		95.3,3.6 96.6,4.5 94.9,4.7 	"/>
	<polygon class="st0 g" points="13.4,82.3 11.1,80 8.6,82 9,78.8 5.8,78.2 8.6,76.5 7.2,73.6 10.2,74.8 11.6,71.8 12.6,74.9 
		15.7,74.1 14,76.8 16.5,78.8 13.3,79.1 	"/>
	<polygon class="st0 h" points="89.2,81.9 87.9,80.5 86.5,81.7 86.7,79.8 85,79.4 86.5,78.4 85.7,76.7 87.4,77.3 88.2,75.6 88.8,77.4 
		90.5,76.9 89.5,78.6 91,79.8 89.2,79.9 	"/>
	<polygon class="st0 i" points="89.9,27.9 88.4,26.2 86.7,27.7 87,25.3 84.9,24.9 86.8,23.6 85.8,21.5 87.8,22.3 88.8,20.1 89.4,22.4 
		91.5,21.8 90.3,23.8 92,25.3 89.9,25.5 	"/>
	<polygon class="st0 j" points="52.9,52.3 50.4,49.7 47.7,52 48.1,48.4 44.6,47.6 47.7,45.7 46.1,42.5 49.5,43.7 51,40.4 52.1,43.9 
		55.6,43 53.6,46.1 56.4,48.3 52.9,48.6 	"/>
	<polygon class="st0 k" points="34.8,29.2 33.7,28.1 32.5,29 32.7,27.6 31.1,27.3 32.5,26.6 31.8,25.3 33.3,25.8 33.9,24.6 34.4,25.9 
		36,25.6 35.1,26.7 36.4,27.6 34.8,27.7 	"/>
	<polygon class="st0 l" points="35.6,9.9 34.3,8.3 32.9,9.8 33.1,7.6 31.3,7.2 32.9,6 32.1,4.1 33.8,4.8 34.6,2.8 35.2,4.9 37,4.3 
		35.9,6.2 37.4,7.5 35.6,7.7 	"/>
	<polygon class="st0 m" points="66.7,8.5 65.6,7.2 64.3,8.4 64.5,6.6 62.9,6.3 64.3,5.3 63.6,3.8 65.1,4.4 65.8,2.8 66.3,4.5 67.9,4 
		67,5.5 68.3,6.6 66.7,6.7 	"/>
	<polygon class="st0 n" points="66.8,25.1 65.6,24 64.4,25 64.6,23.4 62.9,23.1 64.4,22.3 63.6,20.9 65.2,21.5 65.8,20 66.4,21.5 
		68,21.2 67.1,22.5 68.4,23.4 66.7,23.6 	"/>
	<path class="st0" d="M10.9,71.8h-0.2c-0.1,0-0.3-0.1-0.3-0.3V31c0-0.1,0.1-0.3,0.3-0.3h0.2c0.1,0,0.3,0.1,0.3,0.3v40.6
		C11.2,71.7,11.1,71.8,10.9,71.8z"/>
	<path class="st0" d="M29.6,25.7H15.8c-0.2,0-0.4-0.2-0.4-0.4v-0.3c0-0.2,0.2-0.4,0.4-0.4h13.7c0.2,0,0.4,0.2,0.4,0.4v0.3
		C30,25.5,29.8,25.7,29.6,25.7z"/>
	<path class="st0" d="M61,25.7H40.2c-0.2,0-0.4-0.2-0.4-0.4v-0.3c0-0.2,0.2-0.4,0.4-0.4H61c0.2,0,0.4,0.2,0.4,0.4v0.3
		C61.4,25.5,61.2,25.7,61,25.7z"/>
	<path class="st0" d="M84.5,25.7h-12c-0.2,0-0.4-0.2-0.4-0.4v-0.3c0-0.2,0.2-0.4,0.4-0.4h12c0.2,0,0.4,0.2,0.4,0.4v0.3
		C84.9,25.5,84.7,25.7,84.5,25.7z"/>
	<path class="st0" d="M88.7,74.7h-0.3c-0.2,0-0.4-0.2-0.4-0.4V30.4c0-0.2,0.2-0.4,0.4-0.4h0.3c0.2,0,0.4,0.2,0.4,0.4v43.9
		C89.2,74.5,89,74.7,88.7,74.7z"/>
	<path class="st0" d="M83.4,80.2H17.6c-0.1,0-0.2-0.1-0.2-0.2v-0.2c0-0.1,0.1-0.2,0.2-0.2h65.8c0.1,0,0.2,0.1,0.2,0.2V80
		C83.7,80.1,83.6,80.2,83.4,80.2z"/>
	<path class="st0" d="M43.8,45.7L15.5,29.4c-0.2-0.1-0.3-0.4-0.2-0.6l0.2-0.3c0.1-0.2,0.4-0.3,0.6-0.2l28.2,16.3
		c0.2,0.1,0.3,0.4,0.2,0.6l-0.2,0.3C44.3,45.7,44,45.8,43.8,45.7z"/>
	<path class="st0" d="M57,44.6l28.2-16.3c0.2-0.1,0.5-0.1,0.6,0.2l0.2,0.3c0.1,0.2,0.1,0.5-0.2,0.6L57.6,45.7
		c-0.2,0.1-0.5,0.1-0.6-0.2l-0.2-0.3C56.7,45,56.8,44.7,57,44.6z"/>
	<path class="st0" d="M62.6,7.5H40.9c-0.1,0-0.2-0.1-0.2-0.2V7.1c0-0.1,0.1-0.2,0.2-0.2h21.7c0.1,0,0.2,0.1,0.2,0.2v0.2
		C62.8,7.4,62.7,7.5,62.6,7.5z"/>
	<path class="st0" d="M66.7,12.1h0.2c0.1,0,0.2,0.1,0.2,0.2v6.3c0,0.1-0.1,0.2-0.2,0.2h-0.2c-0.1,0-0.2-0.1-0.2-0.2v-6.3
		C66.4,12.2,66.5,12.1,66.7,12.1z"/>
	<path class="st0" d="M35.2,12.1h-0.3c-0.2,0-0.4,0.2-0.4,0.4v7.3c0,0.2,0.2,0.4,0.4,0.4h0.3c0.2,0,0.4-0.2,0.4-0.4v-7.3
		C35.5,12.2,35.4,12.1,35.2,12.1z"/>
</g>
</svg>
